<?xml version="1.0" encoding="UTF-8" standalone="no"?>
<!-- Generator: Adobe Illustrator 17.0.1, SVG Export Plug-In . SVG Version: 6.00 Build 0)  -->

<svg
   xmlns:dc="http://purl.org/dc/elements/1.1/"
   xmlns:cc="http://creativecommons.org/ns#"
   xmlns:rdf="http://www.w3.org/1999/02/22-rdf-syntax-ns#"
   xmlns:svg="http://www.w3.org/2000/svg"
   xmlns="http://www.w3.org/2000/svg"
   xmlns:xlink="http://www.w3.org/1999/xlink"
   xmlns:sodipodi="http://sodipodi.sourceforge.net/DTD/sodipodi-0.dtd"
   xmlns:inkscape="http://www.inkscape.org/namespaces/inkscape"
   version="1.1"
   x="0px"
   y="0px"
   width="86px"
   height="86px"
   viewBox="0 0 86 86"
   enable-background="new 0 0 86 86"
   xml:space="preserve"
   id="svg2"
   inkscape:version="0.91 r13725"
   sodipodi:docname="systemdatascope.svg"><metadata
     id="metadata35"><rdf:RDF><cc:Work
         rdf:about=""><dc:format>image/svg+xml</dc:format><dc:type
           rdf:resource="http://purl.org/dc/dcmitype/StillImage" /><dc:title /></cc:Work></rdf:RDF></metadata><defs
     id="defs33"><marker
       inkscape:stockid="Arrow2Lend"
       orient="auto"
       refY="0.0"
       refX="0.0"
       id="Arrow2Lend"
       style="overflow:visible;"
       inkscape:isstock="true"><path
         id="path4180"
         style="fill-rule:evenodd;stroke-width:0.625;stroke-linejoin:round;stroke:#ffffff;stroke-opacity:1;fill:#ffffff;fill-opacity:1"
         d="M 8.7185878,4.0337352 L -2.2072895,0.016013256 L 8.7185884,-4.0017078 C 6.9730900,-1.6296469 6.9831476,1.6157441 8.7185878,4.0337352 z "
         transform="scale(1.1) rotate(180) translate(1,0)" /></marker><linearGradient
       inkscape:collect="always"
       id="linearGradient4143"><stop
         style="stop-color:#00bfff;stop-opacity:1"
         offset="0"
         id="stop4145" /><stop
         style="stop-color:#00bfff;stop-opacity:0"
         offset="1"
         id="stop4147" /></linearGradient><linearGradient
       inkscape:collect="always"
       xlink:href="#linearGradient4143"
       id="linearGradient4149"
       x1="0.1177962"
       y1="-0.31590781"
       x2="93.073326"
       y2="89.328163"
       gradientUnits="userSpaceOnUse" /><marker
       inkscape:stockid="Arrow2Lend"
       orient="auto"
       refY="0"
       refX="0"
       id="Arrow2Lend-5"
       style="overflow:visible"
       inkscape:isstock="true"><path
         inkscape:connector-curvature="0"
         id="path4180-2"
         style="fill:#ffffff;fill-opacity:1;fill-rule:evenodd;stroke:#ffffff;stroke-width:0.625;stroke-linejoin:round;stroke-opacity:1"
         d="M 8.7185878,4.0337352 -2.2072895,0.01601326 8.7185884,-4.0017078 c -1.7454984,2.3720609 -1.7354408,5.6174519 -6e-7,8.035443 z"
         transform="matrix(-1.1,0,0,-1.1,-1.1,0)" /></marker></defs><sodipodi:namedview
     pagecolor="#ffffff"
     bordercolor="#666666"
     borderopacity="1"
     objecttolerance="10"
     gridtolerance="10"
     guidetolerance="10"
     inkscape:pageopacity="0"
     inkscape:pageshadow="2"
     inkscape:window-width="1920"
     inkscape:window-height="1032"
     id="namedview31"
     showgrid="false"
     inkscape:zoom="7.7617303"
     inkscape:cx="27.437095"
     inkscape:cy="36.410078"
     inkscape:window-x="0"
     inkscape:window-y="27"
     inkscape:window-maximized="1"
     inkscape:current-layer="Layer_1" /><g
     id="Layer_2"
     display="none" /><g
     id="Layer_1"
     transform="matrix(-1,0,0,-1,86.000003,86)"><linearGradient
       id="SVGID_1_"
       gradientUnits="userSpaceOnUse"
       x1="85.179199"
       y1="0.8064"
       x2="12.7851"
       y2="73.2005"><stop
         offset="0"
         style="stop-color:#828282"
         id="stop7" /><stop
         offset="1"
         style="stop-color:#DADADA"
         id="stop9" /></linearGradient><path
       d="m 85.603,1.819 c 0,-0.785 -0.636,-1.422 -1.422,-1.422 l -82.459,0 C 0.937,0.397 0.3,1.034 0.3,1.819 l 0,41.23 C 0.3,66.605 19.396,85.7 42.951,85.7 l 41.23,0 c 0.785,0 1.422,-0.696 1.422,-1.481 l 0,-82.4 z"
       id="path11"
       style="fill:url(#linearGradient4149);fill-opacity:1"
       inkscape:connector-curvature="0" /><path
       style="fill:none;fill-rule:evenodd;stroke:#ffffff;stroke-width:5.80000019;stroke-linecap:round;stroke-linejoin:round;stroke-miterlimit:4;stroke-dasharray:none;stroke-opacity:1"
       d="M 76.032183,15.684012 55.798451,20.96634 47.67634,76.350806 32.836379,64.2329 29.658738,28.081428 12.993602,27.527883"
       id="path4252"
       inkscape:connector-curvature="0"
       sodipodi:nodetypes="cccccc" /><path
       style="fill:none;fill-rule:evenodd;stroke:#ffffff;stroke-width:1px;stroke-linecap:butt;stroke-linejoin:miter;stroke-opacity:1;marker-end:url(#Arrow2Lend)"
       d="M 81.490699,1.8037217 74.146976,79.106073"
       id="path4153"
       inkscape:connector-curvature="0"
       sodipodi:nodetypes="cc" /><path
       style="fill:none;fill-rule:evenodd;stroke:#ffffff;stroke-width:1px;stroke-linecap:butt;stroke-linejoin:miter;stroke-opacity:1;marker-end:url(#Arrow2Lend-5)"
       d="M 84.800512,6.8578582 4.1483885,10.207627"
       id="path4153-8"
       inkscape:connector-curvature="0"
       sodipodi:nodetypes="cc" /><path
       style="fill:none;fill-opacity:1;stroke:#ffffff;stroke-width:1.88624406;stroke-opacity:0.2795389"
       d="m 30.9711,47.895027 c 0.999434,0 1.804032,-0.804596 1.804032,-1.80403 l 0,-4.58524 c 2.333564,-0.579298 4.579605,-1.511669 6.68994,-2.781213 l 3.23222,3.232219 c 0.706705,0.706705 1.849003,0.706705 2.555709,0 l 5.863093,-5.863092 c 0.706707,-0.706707 0.706707,-1.849002 0,-2.55571 l -3.232219,-3.232223 c 1.259609,-2.104171 2.133028,-4.375681 2.706045,-6.689938 l 4.585242,0 c 0.999432,0 1.804028,-0.804596 1.804028,-1.804022 l 0,-8.268471 c 0,-0.999434 -0.804596,-1.804029 -1.804028,-1.804029 l -4.510074,0 C 50.085885,9.4036329 49.154487,7.1614479 47.883875,5.0493375 l 3.232219,-3.232221 c 0.706707,-0.7067021 0.706707,-1.84900207 0,-2.55571177 L 45.253001,-6.6016872 c -0.706706,-0.706704 -1.849004,-0.706704 -2.555709,0 l -3.23222,3.2322189 c -2.119557,-1.2783434 -4.355967,-2.1265328 -6.68994,-2.7060435 l 0,-4.5852412 c 0,-0.999434 -0.804598,-1.804031 -1.804032,-1.804031 l -8.26847,0 c -0.999426,0 -1.804023,0.804597 -1.804023,1.804029 l 0,4.5852432 c -2.338962,0.5764173 -4.57449,1.4368785 -6.68994,2.7060435 l -3.232221,-3.2322189 c -0.706708,-0.706704 -1.8490023,-0.706704 -2.5557101,0 l -5.8630938,5.86309193 c -0.7067039,0.7067097 -0.7067039,1.84900967 0,2.55571177 L 5.789863,5.0493375 C 4.5176818,7.1576259 3.589282,9.4178079 3.0086507,11.739276 l -4.5852428,0 c -0.9994317,2e-6 -1.8040287,0.804597 -1.8040287,1.804031 l 0,8.268462 c 0,0.999435 0.804597,1.804031 1.8040287,1.804031 l 4.5852428,0 c 0.5758043,2.319482 1.523459,4.590507 2.7812123,6.689938 l -3.2322209,3.232223 c -0.7067039,0.706708 -0.7067039,1.849003 0,2.55571 l 5.8630938,5.863092 c 0.7067078,0.706705 1.8490021,0.706705 2.5557101,0 l 3.232221,-3.232219 c 2.112288,1.267848 4.365442,2.206015 6.68994,2.781213 l 0,4.58524 c 0,0.999434 0.804597,1.80403 1.804023,1.80403 l 8.26847,0 z M 27.137541,29.103058 C 24.214534,29.180658 21.233608,28.192171 18.94424,26.021175 14.365509,21.67918 14.151244,14.438812 18.493233,9.8600779 22.824509,5.2926495 30.071799,5.0937714 34.654329,9.4090719 c 4.578731,4.3419941 4.792998,11.5823631 0.451006,16.1610961 -2.170999,2.289364 -5.044789,3.455314 -7.967794,3.532887 z"
       id="rect3381-0"
       inkscape:connector-curvature="0" /></g></svg>