<?xml version="1.0" encoding="UTF-8" standalone="no"?>
<!-- Generator: Adobe Illustrator 17.0.1, SVG Export Plug-In . SVG Version: 6.00 Build 0)  -->

<svg
   xmlns:dc="http://purl.org/dc/elements/1.1/"
   xmlns:cc="http://creativecommons.org/ns#"
   xmlns:rdf="http://www.w3.org/1999/02/22-rdf-syntax-ns#"
   xmlns:svg="http://www.w3.org/2000/svg"
   xmlns="http://www.w3.org/2000/svg"
   xmlns:sodipodi="http://sodipodi.sourceforge.net/DTD/sodipodi-0.dtd"
   xmlns:inkscape="http://www.inkscape.org/namespaces/inkscape"
   version="1.1"
   x="0px"
   y="0px"
   width="86px"
   height="86px"
   viewBox="0 0 86 86"
   enable-background="new 0 0 86 86"
   xml:space="preserve"
   id="svg2"
   inkscape:version="0.91 r13725"
   sodipodi:docname="icon-launcher-map.svg"><metadata
     id="metadata35"><rdf:RDF><cc:Work
         rdf:about=""><dc:format>image/svg+xml</dc:format><dc:type
           rdf:resource="http://purl.org/dc/dcmitype/StillImage" /><dc:title></dc:title></cc:Work></rdf:RDF></metadata><defs
     id="defs33" /><sodipodi:namedview
     pagecolor="#ffffff"
     bordercolor="#666666"
     borderopacity="1"
     objecttolerance="10"
     gridtolerance="10"
     guidetolerance="10"
     inkscape:pageopacity="0"
     inkscape:pageshadow="2"
     inkscape:window-width="1920"
     inkscape:window-height="1032"
     id="namedview31"
     showgrid="false"
     inkscape:zoom="5.4883721"
     inkscape:cx="25.822117"
     inkscape:cy="20.007223"
     inkscape:window-x="0"
     inkscape:window-y="27"
     inkscape:window-maximized="1"
     inkscape:current-layer="Layer_1" /><g
     id="Layer_2"
     display="none" /><g
     id="Layer_1"
     transform="matrix(-1,0,0,-1,86.000003,86)"><linearGradient
       id="SVGID_1_"
       gradientUnits="userSpaceOnUse"
       x1="85.179199"
       y1="0.8064"
       x2="12.7851"
       y2="73.2005"><stop
         offset="0"
         style="stop-color:#828282"
         id="stop7" /><stop
         offset="1"
         style="stop-color:#DADADA"
         id="stop9" /></linearGradient><path
       d="m 85.603,1.819 c 0,-0.785 -0.636,-1.422 -1.422,-1.422 l -82.459,0 C 0.937,0.397 0.3,1.034 0.3,1.819 l 0,41.23 C 0.3,66.605 19.396,85.7 42.951,85.7 l 41.23,0 c 0.785,0 1.422,-0.696 1.422,-1.481 l 0,-82.4 z"
       id="path11"
       style="fill:#0000ff;fill-opacity:0.68011528"
       inkscape:connector-curvature="0" /><path
       d="m 19.597,42.493 0,-42.193 -7.736,0 0,42.193 c 0,17.477 14.168,31.645 31.645,31.645 l 42.194,0 0,-7.735 -42.193,0 c -13.184,0 -23.91,-10.726 -23.91,-23.91 z"
       id="path13"
       inkscape:connector-curvature="0"
       style="opacity:1;fill:#c8c8c8;fill-opacity:1" /><rect
       x="16.320513"
       y="34.917049"
       width="68.771584"
       height="7.4050002"
       id="rect17-0"
       style="opacity:1;fill:#c8c8c8;fill-opacity:1" /><rect
       x="12.841907"
       y="0.45101789"
       width="69.158096"
       height="7.4050002"
       id="rect17-3"
       style="opacity:1;fill:#c8c8c8;fill-opacity:1" /><rect
       x="0.46924692"
       y="-85.579712"
       width="73.144463"
       height="7.4050002"
       id="rect17-0-7"
       style="opacity:1;fill:#c8c8c8;fill-opacity:1"
       transform="matrix(0,1,-1,0,0,0)" /><path
       style="fill:none;fill-rule:evenodd;stroke:#b1ff00;stroke-width:5.8;stroke-linecap:round;stroke-linejoin:round;stroke-opacity:1;stroke-miterlimit:4;stroke-dasharray:none"
       d="m 82.173732,14.758475 -21.135593,0 L 57.940681,67.050847 53.021189,27.877119 34.25424,22.775424 16.944918,13.847458"
       id="path4252"
       inkscape:connector-curvature="0" /></g></svg>